<svg fill="none" xmlns="http://www.w3.org/2000/svg" viewBox="0 0 32 32"><rect width="32" height="32" rx="6" fill="#fff"/><path d="M25.582 11.1866c-.23-.8605-.9076-1.53814-1.7681-1.7681-1.5599-.41801-7.814-.41801-7.814-.41801s-6.25408 0-7.81396.41801c-.86035.22996-1.53813.9076-1.76813 1.7681C6 12.7463 6 16.0005 6 16.0005s0 3.2542.41781 4.8138c.23.8605.90778 1.5383 1.76813 1.7683 1.55988.4178 7.81396.4178 7.81396.4178s6.2541 0 7.814-.4178c.8605-.23 1.5381-.9078 1.7681-1.7683.418-1.5596.418-4.8138.418-4.8138s0-3.2542-.418-4.8139z" fill="#ED1F24"/><path d="M13.998 19.0008l5.1961-3-5.1961-3.0001v6.0001z" fill="#fff"/></svg>